<svg width="202" height="28" viewBox="0 0 202 28" fill="none" xmlns="http://www.w3.org/2000/svg">
<path d="M32.6203 27.6L34.8195 21.8734H35.6359L37.9797 27.6H37.1164L36.4484 25.8656H34.0539L33.425 27.6H32.6203ZM34.2726 25.2484H36.2141L35.6164 23.6625C35.4341 23.1807 35.2987 22.7849 35.2101 22.475C35.1372 22.8422 35.0344 23.2067 34.9016 23.5687L34.2726 25.2484ZM43.2378 23.7836H41.7183V27.6H40.9995V23.7836H39.4956V23.1586H43.2378V23.7836ZM49.2615 23.7836H47.742V27.6H47.0233V23.7836H45.5194V23.1586H49.2615V23.7836ZM55.3478 27.6H54.547L54.0587 26.3265H52.1212L51.6681 27.6H50.9064L52.6681 23.1586H53.4728L55.3478 27.6ZM53.7775 25.7054L53.34 24.5375C53.3035 24.4411 53.2723 24.3591 53.2462 24.2914C53.2202 24.2211 53.1968 24.1586 53.1759 24.1039C53.1551 24.0466 53.1369 23.9906 53.1212 23.9359C53.1056 23.8812 53.09 23.82 53.0744 23.7523H53.0587C53.0457 23.8252 53.0314 23.8903 53.0158 23.9476C53.0027 24.0023 52.9871 24.0596 52.9689 24.1195C52.9533 24.1768 52.9324 24.2406 52.9064 24.3109C52.883 24.3786 52.853 24.462 52.8165 24.5609L52.3869 25.7054H53.7775ZM61.8012 26.1664C61.7335 26.3955 61.6424 26.6026 61.5278 26.7875C61.4132 26.9724 61.2739 27.1312 61.1098 27.264C60.9458 27.3942 60.7557 27.4945 60.5395 27.5648C60.326 27.6351 60.0877 27.6703 59.8247 27.6703C59.4731 27.6703 59.1632 27.6156 58.895 27.5062C58.6268 27.3942 58.4015 27.2367 58.2192 27.0336C58.0395 26.8304 57.9028 26.5857 57.809 26.2992C57.7179 26.0127 57.6723 25.6937 57.6723 25.3422C57.6723 24.9828 57.727 24.6638 57.8364 24.3851C57.9484 24.1039 58.102 23.8682 58.2973 23.6781C58.4926 23.4854 58.7244 23.3396 58.9926 23.2406C59.2635 23.139 59.559 23.0883 59.8794 23.0883C60.1398 23.0883 60.3702 23.1195 60.5708 23.182C60.7739 23.2445 60.9497 23.333 61.0981 23.4476C61.2465 23.5622 61.3715 23.7002 61.4731 23.8617C61.5747 24.0205 61.6567 24.1976 61.7192 24.3929L61.0083 24.5219C60.8234 23.9672 60.4393 23.6898 59.8559 23.6898C59.6215 23.6898 59.4145 23.7276 59.2348 23.8031C59.0577 23.8786 58.9093 23.988 58.7895 24.1312C58.6697 24.2719 58.5786 24.445 58.5161 24.6508C58.4562 24.8539 58.4262 25.0844 58.4262 25.3422C58.4262 25.6442 58.4588 25.9047 58.5239 26.1234C58.5916 26.3396 58.6854 26.5179 58.8051 26.6586C58.9275 26.7992 59.0734 26.9034 59.2426 26.9711C59.4145 27.0388 59.6033 27.0726 59.809 27.0726C60.1502 27.0726 60.4262 26.9828 60.6372 26.8031C60.8507 26.6208 60.9992 26.3643 61.0825 26.0336L61.8012 26.1664ZM68.3836 27.6H67.6648V25.5609H65.3601V27.6H64.6336V23.1586H65.3601V24.9359H67.6648V23.1586H68.3836V27.6ZM81.0756 23.1586L79.853 27.6H79.1889L78.1576 24.1937C78.116 24.0557 78.086 23.9502 78.0678 23.8773C78.0496 23.8018 78.0365 23.7419 78.0287 23.6976H78.0131C78.0053 23.7367 77.9897 23.8044 77.9662 23.9008C77.9428 23.9945 77.9129 24.1026 77.8764 24.225L76.8608 27.6H76.1498L74.9623 23.1586H75.685L76.3412 25.9594C76.3933 26.1729 76.4337 26.3656 76.4623 26.5375C76.4936 26.7094 76.517 26.8448 76.5326 26.9437H76.5405C76.5431 26.8995 76.5522 26.8396 76.5678 26.764C76.5834 26.6859 76.6004 26.6065 76.6186 26.5258C76.6394 26.4424 76.6589 26.363 76.6772 26.2875C76.6954 26.212 76.711 26.1534 76.724 26.1117L77.6108 23.1586H78.4584L79.2514 25.7836C79.2826 25.8877 79.3126 25.9984 79.3412 26.1156C79.3699 26.2302 79.3946 26.3409 79.4155 26.4476C79.4389 26.5544 79.4571 26.6508 79.4701 26.7367C79.4832 26.8226 79.491 26.889 79.4936 26.9359H79.5092C79.5248 26.8109 79.5444 26.6716 79.5678 26.5179C79.5938 26.3643 79.6277 26.2028 79.6694 26.0336L80.3725 23.1586H81.0756ZM84.4783 27.6H83.7517V23.1586H84.4783V27.6ZM90.9356 23.7836H89.4161V27.6H88.6973V23.7836H87.1934V23.1586H90.9356V23.7836ZM97.4008 27.6H96.682V25.5609H94.3773V27.6H93.6508V23.1586H94.3773V24.9359H96.682V23.1586H97.4008V27.6ZM108.253 23.1586L106.405 25.7211V27.6H105.679V25.7211L103.894 23.1586H104.749L105.702 24.5922C105.778 24.7041 105.847 24.8096 105.909 24.9086C105.972 25.0075 106.025 25.1026 106.069 25.1937C106.103 25.1182 106.147 25.0349 106.202 24.9437C106.259 24.85 106.338 24.7302 106.437 24.5844L107.413 23.1586H108.253ZM112.847 23.0883C113.178 23.0883 113.48 23.1442 113.753 23.2562C114.027 23.3656 114.261 23.5219 114.456 23.725C114.654 23.9255 114.807 24.1664 114.913 24.4476C115.023 24.7289 115.077 25.0414 115.077 25.3851C115.077 25.7263 115.023 26.0375 114.913 26.3187C114.807 26.6 114.656 26.8409 114.46 27.0414C114.265 27.2419 114.029 27.3969 113.753 27.5062C113.48 27.6156 113.178 27.6703 112.847 27.6703C112.503 27.6703 112.192 27.613 111.913 27.4984C111.637 27.3812 111.402 27.2224 111.206 27.0219C111.014 26.8187 110.865 26.5817 110.761 26.3109C110.657 26.0401 110.605 25.7497 110.605 25.4398C110.605 25.07 110.66 24.7393 110.769 24.4476C110.878 24.156 111.032 23.9099 111.23 23.7094C111.428 23.5088 111.663 23.3552 111.937 23.2484C112.213 23.1416 112.516 23.0883 112.847 23.0883ZM112.839 27.0726C113.068 27.0726 113.274 27.0336 113.456 26.9554C113.639 26.8773 113.792 26.7666 113.917 26.6234C114.045 26.4776 114.143 26.3005 114.21 26.0922C114.281 25.8838 114.318 25.6482 114.324 25.3851C114.324 25.1195 114.287 24.8812 114.214 24.6703C114.144 24.4594 114.044 24.2823 113.913 24.139C113.786 23.9932 113.632 23.8825 113.452 23.807C113.273 23.7289 113.074 23.6898 112.855 23.6898C112.633 23.6898 112.43 23.725 112.245 23.7953C112.063 23.8656 111.906 23.9737 111.773 24.1195C111.64 24.2627 111.536 24.445 111.46 24.6664C111.387 24.8851 111.351 25.1455 111.351 25.4476C111.351 25.6872 111.385 25.906 111.452 26.1039C111.523 26.3018 111.622 26.4737 111.749 26.6195C111.88 26.7627 112.036 26.8747 112.218 26.9554C112.403 27.0336 112.61 27.0726 112.839 27.0726ZM121.707 25.7289C121.707 25.8669 121.7 26.0114 121.687 26.1625C121.677 26.3109 121.649 26.458 121.605 26.6039C121.563 26.7471 121.502 26.8838 121.422 27.014C121.341 27.1416 121.231 27.2549 121.093 27.3539C120.955 27.4502 120.785 27.5271 120.582 27.5844C120.379 27.6416 120.132 27.6703 119.843 27.6703C119.523 27.6703 119.255 27.6377 119.039 27.5726C118.823 27.5075 118.644 27.4216 118.504 27.3148C118.366 27.208 118.26 27.087 118.187 26.9515C118.114 26.8135 118.061 26.6729 118.027 26.5297C117.996 26.3838 117.978 26.2419 117.972 26.1039C117.97 25.9659 117.968 25.8409 117.968 25.7289V23.1586H118.691V25.7211C118.691 25.833 118.694 25.9437 118.699 26.0531C118.707 26.1625 118.722 26.2666 118.746 26.3656C118.772 26.462 118.808 26.5531 118.855 26.639C118.905 26.7224 118.97 26.7953 119.05 26.8578C119.134 26.9177 119.235 26.9646 119.355 26.9984C119.475 27.0323 119.621 27.0492 119.793 27.0492C120.061 27.0492 120.273 27.0179 120.429 26.9554C120.588 26.8903 120.708 26.7992 120.789 26.682C120.869 26.5648 120.92 26.4255 120.941 26.264C120.965 26.1 120.976 25.919 120.976 25.7211V23.1586H121.707V25.7289ZM129.016 27.6H128.125L127.293 26.3851C127.197 26.2445 127.108 26.1286 127.027 26.0375C126.949 25.9437 126.868 25.8695 126.785 25.8148C126.704 25.7575 126.616 25.7185 126.52 25.6976C126.423 25.6742 126.311 25.6625 126.184 25.6625H125.551V27.6H124.824V23.1586H126.934C127.194 23.1586 127.428 23.1794 127.637 23.2211C127.845 23.2627 128.022 23.3317 128.168 23.4281C128.314 23.5219 128.426 23.6469 128.504 23.8031C128.582 23.9567 128.621 24.1482 128.621 24.3773C128.621 24.7159 128.508 24.9906 128.281 25.2015C128.057 25.4099 127.725 25.5427 127.285 25.6V25.6156C127.605 25.7432 127.905 26.0075 128.184 26.4086L129.016 27.6ZM125.551 25.1039H126.781C127.138 25.1039 127.41 25.0479 127.598 24.9359C127.785 24.8239 127.879 24.6377 127.879 24.3773C127.879 24.1716 127.798 24.0153 127.637 23.9086C127.478 23.7992 127.22 23.7445 126.863 23.7445H125.551V25.1039ZM138.719 23.7836H136.278V25.0062H138.391V25.6312H136.278V27.6H135.551V23.1586H138.719V23.7836ZM144.946 27.6H144.145L143.657 26.3265H141.72L141.267 27.6H140.505L142.267 23.1586H143.071L144.946 27.6ZM143.376 25.7054L142.938 24.5375C142.902 24.4411 142.871 24.3591 142.845 24.2914C142.819 24.2211 142.795 24.1586 142.774 24.1039C142.754 24.0466 142.735 23.9906 142.72 23.9359C142.704 23.8812 142.688 23.82 142.673 23.7523H142.657C142.644 23.8252 142.63 23.8903 142.614 23.9476C142.601 24.0023 142.586 24.0596 142.567 24.1195C142.552 24.1768 142.531 24.2406 142.505 24.3109C142.481 24.3786 142.451 24.462 142.415 24.5609L141.985 25.7054H143.376ZM152.095 27.6H151.415V24.057H151.392L150.064 27.6H149.521L148.2 23.9906H148.185V27.6H147.505V23.1586H148.529L149.599 26.0726C149.651 26.208 149.694 26.3396 149.728 26.4672C149.764 26.5948 149.793 26.7002 149.814 26.7836H149.822C149.85 26.7028 149.884 26.5961 149.923 26.4633C149.962 26.3278 150.012 26.182 150.072 26.0258L151.169 23.1586H152.095V27.6ZM155.974 27.6H155.248V23.1586H155.974V27.6ZM162.064 27.6H159.123V23.1586H159.85V26.975H162.064V27.6ZM168.022 23.1586L166.174 25.7211V27.6H165.447V25.7211L163.662 23.1586H164.518L165.471 24.5922C165.546 24.7041 165.615 24.8096 165.678 24.9086C165.74 25.0075 165.794 25.1026 165.838 25.1937C165.872 25.1182 165.916 25.0349 165.971 24.9437C166.028 24.85 166.106 24.7302 166.205 24.5844L167.182 23.1586H168.022Z" fill="#C4C4C4"/>
<path d="M44.3846 15H37.1736C36.3976 15 35.6919 14.8542 35.0565 14.5625C34.421 14.2708 33.8768 13.8724 33.4236 13.3672C32.9757 12.862 32.6294 12.2682 32.3846 11.5859C32.1398 10.9036 32.0174 10.1745 32.0174 9.39844C32.0174 8.6276 32.1398 7.90365 32.3846 7.22656C32.6294 6.54427 32.9757 5.95052 33.4236 5.44531C33.8768 4.9349 34.421 4.53385 35.0565 4.24219C35.6919 3.94531 36.3976 3.79688 37.1736 3.79688H44.3846V5.39844H37.1736C36.6216 5.39844 36.1242 5.50521 35.6815 5.71875C35.244 5.92708 34.8716 6.21354 34.5643 6.57812C34.2622 6.9375 34.0278 7.35938 33.8611 7.84375C33.6997 8.32812 33.619 8.84635 33.619 9.39844C33.619 9.95052 33.6997 10.4714 33.8611 10.9609C34.0278 11.4453 34.2622 11.8698 34.5643 12.2344C34.8716 12.5938 35.244 12.8776 35.6815 13.0859C36.1242 13.2943 36.6216 13.3984 37.1736 13.3984H44.3846V15ZM56.4315 10.5859C56.4315 11.1953 56.3351 11.7682 56.1424 12.3047C55.9497 12.8359 55.6736 13.3021 55.3143 13.7031C54.9601 14.1042 54.533 14.4219 54.033 14.6562C53.5382 14.8854 52.9861 15 52.3768 15H49.5955C48.9861 15 48.4315 14.8854 47.9315 14.6562C47.4315 14.4219 47.0018 14.1042 46.6424 13.7031C46.2882 13.3021 46.0148 12.8359 45.8221 12.3047C45.6294 11.7682 45.533 11.1953 45.533 10.5859C45.533 9.98177 45.6294 9.41406 45.8221 8.88281C46.0148 8.35156 46.2882 7.88802 46.6424 7.49219C47.0018 7.09115 47.4315 6.77604 47.9315 6.54688C48.4315 6.31771 48.9861 6.20312 49.5955 6.20312H52.3768C52.9861 6.20312 53.5382 6.31771 54.033 6.54688C54.533 6.77604 54.9601 7.09115 55.3143 7.49219C55.6736 7.88802 55.9497 8.35156 56.1424 8.88281C56.3351 9.41406 56.4315 9.98177 56.4315 10.5859ZM54.8299 10.5859C54.8299 10.2005 54.7726 9.83854 54.658 9.5C54.5486 9.15625 54.3872 8.85938 54.1736 8.60938C53.9653 8.35417 53.7101 8.15365 53.408 8.00781C53.1059 7.85677 52.7622 7.78125 52.3768 7.78125H49.5955C49.2101 7.78125 48.8637 7.85677 48.5565 8.00781C48.2544 8.15365 47.9966 8.35417 47.783 8.60938C47.5747 8.85938 47.4132 9.15625 47.2986 9.5C47.1893 9.83854 47.1346 10.2005 47.1346 10.5859C47.1346 10.9714 47.1893 11.3359 47.2986 11.6797C47.4132 12.0182 47.5747 12.3151 47.783 12.5703C47.9966 12.8255 48.2544 13.0286 48.5565 13.1797C48.8637 13.3255 49.2101 13.3984 49.5955 13.3984H52.3768C52.7622 13.3984 53.1059 13.3255 53.408 13.1797C53.7101 13.0286 53.9653 12.8255 54.1736 12.5703C54.3872 12.3151 54.5486 12.0182 54.658 11.6797C54.7726 11.3359 54.8299 10.9714 54.8299 10.5859ZM66.283 15C66.283 14.4167 66.1841 13.8516 65.9861 13.3047C65.7934 12.7526 65.5304 12.2344 65.1971 11.75C64.869 11.2604 64.4861 10.8047 64.0486 10.3828C63.6164 9.96094 63.1606 9.58594 62.6815 9.25781C62.2023 8.92448 61.7127 8.64583 61.2127 8.42188C60.7179 8.19271 60.2466 8.02344 59.7986 7.91406V15H58.1971V6.20312H59.0643V6.21875C59.6372 6.25 60.2466 6.3776 60.8924 6.60156C61.5434 6.82031 62.1893 7.11979 62.8299 7.5C63.4757 7.875 64.0955 8.32292 64.6893 8.84375C65.2882 9.35938 65.8195 9.92969 66.283 10.5547V6.20312H67.8768V15H66.283ZM78.2674 15C78.2674 14.4167 78.1684 13.8516 77.9705 13.3047C77.7778 12.7526 77.5148 12.2344 77.1815 11.75C76.8533 11.2604 76.4705 10.8047 76.033 10.3828C75.6007 9.96094 75.145 9.58594 74.6658 9.25781C74.1867 8.92448 73.6971 8.64583 73.1971 8.42188C72.7023 8.19271 72.2309 8.02344 71.783 7.91406V15H70.1815V6.20312H71.0486V6.21875C71.6216 6.25 72.2309 6.3776 72.8768 6.60156C73.5278 6.82031 74.1736 7.11979 74.8143 7.5C75.4601 7.875 76.0799 8.32292 76.6736 8.84375C77.2726 9.35938 77.8039 9.92969 78.2674 10.5547V6.20312H79.8611V15H78.2674ZM91.3533 15H82.1658V6.17188H91.3533V7.78125H83.783V13.3828H91.3533V15ZM90.3299 11.3516H84.5408V9.73438H90.3299V11.3516ZM102.322 15H96.6424C96.0226 15 95.4601 14.8854 94.9549 14.6562C94.4497 14.4271 94.0174 14.1146 93.658 13.7188C93.2986 13.3177 93.02 12.849 92.8221 12.3125C92.6294 11.7708 92.533 11.1901 92.533 10.5703C92.533 9.95573 92.6294 9.38281 92.8221 8.85156C93.02 8.3151 93.2986 7.84896 93.658 7.45312C94.0174 7.05729 94.4497 6.74479 94.9549 6.51562C95.4601 6.28646 96.0226 6.17188 96.6424 6.17188H102.322V7.78125H96.6424C96.257 7.78125 95.908 7.85417 95.5955 8C95.2882 8.14583 95.0278 8.34375 94.8143 8.59375C94.6007 8.84375 94.4367 9.13802 94.3221 9.47656C94.2075 9.8151 94.1502 10.1797 94.1502 10.5703C94.1502 10.9661 94.2075 11.3359 94.3221 11.6797C94.4367 12.0182 94.6007 12.3151 94.8143 12.5703C95.0278 12.8203 95.2882 13.0182 95.5955 13.1641C95.908 13.3099 96.257 13.3828 96.6424 13.3828H102.322V15ZM108.971 15H107.369V7.78125H103.135V6.20312H113.197V7.78125H108.971V15Z" fill="white"/>
<rect y="3" width="27" height="25" fill="#C4C4C4"/>
<path d="M19.7041 22H11.5918C10.7188 22 9.9248 21.8359 9.20996 21.5078C8.49512 21.1797 7.88281 20.7314 7.37305 20.1631C6.86914 19.5947 6.47949 18.9268 6.2041 18.1592C5.92871 17.3916 5.79102 16.5713 5.79102 15.6982C5.79102 14.8311 5.92871 14.0166 6.2041 13.2549C6.47949 12.4873 6.86914 11.8193 7.37305 11.251C7.88281 10.6768 8.49512 10.2256 9.20996 9.89746C9.9248 9.56348 10.7188 9.39648 11.5918 9.39648H19.7041V11.1982H11.5918C10.9707 11.1982 10.4111 11.3184 9.91309 11.5586C9.4209 11.793 9.00195 12.1152 8.65625 12.5254C8.31641 12.9297 8.05273 13.4043 7.86523 13.9492C7.68359 14.4941 7.59277 15.0771 7.59277 15.6982C7.59277 16.3193 7.68359 16.9053 7.86523 17.4561C8.05273 18.001 8.31641 18.4785 8.65625 18.8887C9.00195 19.293 9.4209 19.6123 9.91309 19.8467C10.4111 20.0811 10.9707 20.1982 11.5918 20.1982H19.7041V22Z" fill="#16292F" fill-opacity="0.7"/>
</svg>
