<svg width="202" height="27" viewBox="0 0 202 27" fill="none" xmlns="http://www.w3.org/2000/svg">
<path d="M32.6203 26.6L34.8195 20.8734H35.6359L37.9797 26.6H37.1164L36.4484 24.8656H34.0539L33.425 26.6H32.6203ZM34.2726 24.2484H36.2141L35.6164 22.6625C35.4341 22.1807 35.2987 21.7849 35.2101 21.475C35.1372 21.8422 35.0344 22.2067 34.9016 22.5687L34.2726 24.2484ZM43.2378 22.7836H41.7183V26.6H40.9995V22.7836H39.4956V22.1586H43.2378V22.7836ZM49.2615 22.7836H47.742V26.6H47.0233V22.7836H45.5194V22.1586H49.2615V22.7836ZM55.3478 26.6H54.547L54.0587 25.3265H52.1212L51.6681 26.6H50.9064L52.6681 22.1586H53.4728L55.3478 26.6ZM53.7775 24.7054L53.34 23.5375C53.3035 23.4411 53.2723 23.3591 53.2462 23.2914C53.2202 23.2211 53.1968 23.1586 53.1759 23.1039C53.1551 23.0466 53.1369 22.9906 53.1212 22.9359C53.1056 22.8812 53.09 22.82 53.0744 22.7523H53.0587C53.0457 22.8252 53.0314 22.8903 53.0158 22.9476C53.0027 23.0023 52.9871 23.0596 52.9689 23.1195C52.9533 23.1768 52.9324 23.2406 52.9064 23.3109C52.883 23.3786 52.853 23.462 52.8165 23.5609L52.3869 24.7054H53.7775ZM61.8012 25.1664C61.7335 25.3955 61.6424 25.6026 61.5278 25.7875C61.4132 25.9724 61.2739 26.1312 61.1098 26.264C60.9458 26.3942 60.7557 26.4945 60.5395 26.5648C60.326 26.6351 60.0877 26.6703 59.8247 26.6703C59.4731 26.6703 59.1632 26.6156 58.895 26.5062C58.6268 26.3942 58.4015 26.2367 58.2192 26.0336C58.0395 25.8304 57.9028 25.5857 57.809 25.2992C57.7179 25.0127 57.6723 24.6937 57.6723 24.3422C57.6723 23.9828 57.727 23.6638 57.8364 23.3851C57.9484 23.1039 58.102 22.8682 58.2973 22.6781C58.4926 22.4854 58.7244 22.3396 58.9926 22.2406C59.2635 22.139 59.559 22.0883 59.8794 22.0883C60.1398 22.0883 60.3702 22.1195 60.5708 22.182C60.7739 22.2445 60.9497 22.333 61.0981 22.4476C61.2465 22.5622 61.3715 22.7002 61.4731 22.8617C61.5747 23.0205 61.6567 23.1976 61.7192 23.3929L61.0083 23.5219C60.8234 22.9672 60.4393 22.6898 59.8559 22.6898C59.6215 22.6898 59.4145 22.7276 59.2348 22.8031C59.0577 22.8786 58.9093 22.988 58.7895 23.1312C58.6697 23.2719 58.5786 23.445 58.5161 23.6508C58.4562 23.8539 58.4262 24.0844 58.4262 24.3422C58.4262 24.6442 58.4588 24.9047 58.5239 25.1234C58.5916 25.3396 58.6854 25.5179 58.8051 25.6586C58.9275 25.7992 59.0734 25.9034 59.2426 25.9711C59.4145 26.0388 59.6033 26.0726 59.809 26.0726C60.1502 26.0726 60.4262 25.9828 60.6372 25.8031C60.8507 25.6208 60.9992 25.3643 61.0825 25.0336L61.8012 25.1664ZM68.3836 26.6H67.6648V24.5609H65.3601V26.6H64.6336V22.1586H65.3601V23.9359H67.6648V22.1586H68.3836V26.6ZM81.0756 22.1586L79.853 26.6H79.1889L78.1576 23.1937C78.116 23.0557 78.086 22.9502 78.0678 22.8773C78.0496 22.8018 78.0365 22.7419 78.0287 22.6976H78.0131C78.0053 22.7367 77.9897 22.8044 77.9662 22.9008C77.9428 22.9945 77.9129 23.1026 77.8764 23.225L76.8608 26.6H76.1498L74.9623 22.1586H75.685L76.3412 24.9594C76.3933 25.1729 76.4337 25.3656 76.4623 25.5375C76.4936 25.7094 76.517 25.8448 76.5326 25.9437H76.5405C76.5431 25.8995 76.5522 25.8396 76.5678 25.764C76.5834 25.6859 76.6004 25.6065 76.6186 25.5258C76.6394 25.4424 76.6589 25.363 76.6772 25.2875C76.6954 25.212 76.711 25.1534 76.724 25.1117L77.6108 22.1586H78.4584L79.2514 24.7836C79.2826 24.8877 79.3126 24.9984 79.3412 25.1156C79.3699 25.2302 79.3946 25.3409 79.4155 25.4476C79.4389 25.5544 79.4571 25.6508 79.4701 25.7367C79.4832 25.8226 79.491 25.889 79.4936 25.9359H79.5092C79.5248 25.8109 79.5444 25.6716 79.5678 25.5179C79.5938 25.3643 79.6277 25.2028 79.6694 25.0336L80.3725 22.1586H81.0756ZM84.4783 26.6H83.7517V22.1586H84.4783V26.6ZM90.9356 22.7836H89.4161V26.6H88.6973V22.7836H87.1934V22.1586H90.9356V22.7836ZM97.4008 26.6H96.682V24.5609H94.3773V26.6H93.6508V22.1586H94.3773V23.9359H96.682V22.1586H97.4008V26.6ZM108.253 22.1586L106.405 24.7211V26.6H105.679V24.7211L103.894 22.1586H104.749L105.702 23.5922C105.778 23.7041 105.847 23.8096 105.909 23.9086C105.972 24.0075 106.025 24.1026 106.069 24.1937C106.103 24.1182 106.147 24.0349 106.202 23.9437C106.259 23.85 106.338 23.7302 106.437 23.5844L107.413 22.1586H108.253ZM112.847 22.0883C113.178 22.0883 113.48 22.1442 113.753 22.2562C114.027 22.3656 114.261 22.5219 114.456 22.725C114.654 22.9255 114.807 23.1664 114.913 23.4476C115.023 23.7289 115.077 24.0414 115.077 24.3851C115.077 24.7263 115.023 25.0375 114.913 25.3187C114.807 25.6 114.656 25.8409 114.46 26.0414C114.265 26.2419 114.029 26.3969 113.753 26.5062C113.48 26.6156 113.178 26.6703 112.847 26.6703C112.503 26.6703 112.192 26.613 111.913 26.4984C111.637 26.3812 111.402 26.2224 111.206 26.0219C111.014 25.8187 110.865 25.5817 110.761 25.3109C110.657 25.0401 110.605 24.7497 110.605 24.4398C110.605 24.07 110.66 23.7393 110.769 23.4476C110.878 23.156 111.032 22.9099 111.23 22.7094C111.428 22.5088 111.663 22.3552 111.937 22.2484C112.213 22.1416 112.516 22.0883 112.847 22.0883ZM112.839 26.0726C113.068 26.0726 113.274 26.0336 113.456 25.9554C113.639 25.8773 113.792 25.7666 113.917 25.6234C114.045 25.4776 114.143 25.3005 114.21 25.0922C114.281 24.8838 114.318 24.6482 114.324 24.3851C114.324 24.1195 114.287 23.8812 114.214 23.6703C114.144 23.4594 114.044 23.2823 113.913 23.139C113.786 22.9932 113.632 22.8825 113.452 22.807C113.273 22.7289 113.074 22.6898 112.855 22.6898C112.633 22.6898 112.43 22.725 112.245 22.7953C112.063 22.8656 111.906 22.9737 111.773 23.1195C111.64 23.2627 111.536 23.445 111.46 23.6664C111.387 23.8851 111.351 24.1455 111.351 24.4476C111.351 24.6872 111.385 24.906 111.452 25.1039C111.523 25.3018 111.622 25.4737 111.749 25.6195C111.88 25.7627 112.036 25.8747 112.218 25.9554C112.403 26.0336 112.61 26.0726 112.839 26.0726ZM121.707 24.7289C121.707 24.8669 121.7 25.0114 121.687 25.1625C121.677 25.3109 121.649 25.458 121.605 25.6039C121.563 25.7471 121.502 25.8838 121.422 26.014C121.341 26.1416 121.231 26.2549 121.093 26.3539C120.955 26.4502 120.785 26.5271 120.582 26.5844C120.379 26.6416 120.132 26.6703 119.843 26.6703C119.523 26.6703 119.255 26.6377 119.039 26.5726C118.823 26.5075 118.644 26.4216 118.504 26.3148C118.366 26.208 118.26 26.087 118.187 25.9515C118.114 25.8135 118.061 25.6729 118.027 25.5297C117.996 25.3838 117.978 25.2419 117.972 25.1039C117.97 24.9659 117.968 24.8409 117.968 24.7289V22.1586H118.691V24.7211C118.691 24.833 118.694 24.9437 118.699 25.0531C118.707 25.1625 118.722 25.2666 118.746 25.3656C118.772 25.462 118.808 25.5531 118.855 25.639C118.905 25.7224 118.97 25.7953 119.05 25.8578C119.134 25.9177 119.235 25.9646 119.355 25.9984C119.475 26.0323 119.621 26.0492 119.793 26.0492C120.061 26.0492 120.273 26.0179 120.429 25.9554C120.588 25.8903 120.708 25.7992 120.789 25.682C120.869 25.5648 120.92 25.4255 120.941 25.264C120.965 25.1 120.976 24.919 120.976 24.7211V22.1586H121.707V24.7289ZM129.016 26.6H128.125L127.293 25.3851C127.197 25.2445 127.108 25.1286 127.027 25.0375C126.949 24.9437 126.868 24.8695 126.785 24.8148C126.704 24.7575 126.616 24.7185 126.52 24.6976C126.423 24.6742 126.311 24.6625 126.184 24.6625H125.551V26.6H124.824V22.1586H126.934C127.194 22.1586 127.428 22.1794 127.637 22.2211C127.845 22.2627 128.022 22.3317 128.168 22.4281C128.314 22.5219 128.426 22.6469 128.504 22.8031C128.582 22.9567 128.621 23.1482 128.621 23.3773C128.621 23.7159 128.508 23.9906 128.281 24.2015C128.057 24.4099 127.725 24.5427 127.285 24.6V24.6156C127.605 24.7432 127.905 25.0075 128.184 25.4086L129.016 26.6ZM125.551 24.1039H126.781C127.138 24.1039 127.41 24.0479 127.598 23.9359C127.785 23.8239 127.879 23.6377 127.879 23.3773C127.879 23.1716 127.798 23.0153 127.637 22.9086C127.478 22.7992 127.22 22.7445 126.863 22.7445H125.551V24.1039ZM138.719 22.7836H136.278V24.0062H138.391V24.6312H136.278V26.6H135.551V22.1586H138.719V22.7836ZM144.946 26.6H144.145L143.657 25.3265H141.72L141.267 26.6H140.505L142.267 22.1586H143.071L144.946 26.6ZM143.376 24.7054L142.938 23.5375C142.902 23.4411 142.871 23.3591 142.845 23.2914C142.819 23.2211 142.795 23.1586 142.774 23.1039C142.754 23.0466 142.735 22.9906 142.72 22.9359C142.704 22.8812 142.688 22.82 142.673 22.7523H142.657C142.644 22.8252 142.63 22.8903 142.614 22.9476C142.601 23.0023 142.586 23.0596 142.567 23.1195C142.552 23.1768 142.531 23.2406 142.505 23.3109C142.481 23.3786 142.451 23.462 142.415 23.5609L141.985 24.7054H143.376ZM152.095 26.6H151.415V23.057H151.392L150.064 26.6H149.521L148.2 22.9906H148.185V26.6H147.505V22.1586H148.529L149.599 25.0726C149.651 25.208 149.694 25.3396 149.728 25.4672C149.764 25.5948 149.793 25.7002 149.814 25.7836H149.822C149.85 25.7028 149.884 25.5961 149.923 25.4633C149.962 25.3278 150.012 25.182 150.072 25.0258L151.169 22.1586H152.095V26.6ZM155.974 26.6H155.248V22.1586H155.974V26.6ZM162.064 26.6H159.123V22.1586H159.85V25.975H162.064V26.6ZM168.022 22.1586L166.174 24.7211V26.6H165.447V24.7211L163.662 22.1586H164.518L165.471 23.5922C165.546 23.7041 165.615 23.8096 165.678 23.9086C165.74 24.0075 165.794 24.1026 165.838 24.1937C165.872 24.1182 165.916 24.0349 165.971 23.9437C166.028 23.85 166.106 23.7302 166.205 23.5844L167.182 22.1586H168.022Z" fill="#C4C4C4"/>
<path d="M33.9453 15H32.3438V3.79688H33.9453V15ZM38.2422 15H36.6406V3.79688H38.2422V15ZM52.9375 3.79688L52.9219 9.39844C52.9219 9.91927 52.8542 10.4193 52.7188 10.8984C52.5885 11.3724 52.401 11.8177 52.1562 12.2344C51.9167 12.6458 51.625 13.0234 51.2812 13.3672C50.9427 13.7057 50.5651 13.9974 50.1484 14.2422C49.737 14.4818 49.2943 14.6693 48.8203 14.8047C48.3464 14.9349 47.8516 15 47.3359 15H46.1562C45.6406 15 45.1432 14.9349 44.6641 14.8047C44.1901 14.6693 43.7448 14.4792 43.3281 14.2344C42.9167 13.9896 42.5417 13.6979 42.2031 13.3594C41.8646 13.0156 41.5729 12.638 41.3281 12.2266C41.0885 11.8099 40.901 11.3646 40.7656 10.8906C40.6354 10.4115 40.5703 9.91406 40.5703 9.39844V3.79688H42.1719V9.39844C42.1719 9.95052 42.276 10.4714 42.4844 10.9609C42.6927 11.4453 42.9766 11.8698 43.3359 12.2344C43.7005 12.5938 44.125 12.8776 44.6094 13.0859C45.0938 13.2943 45.6094 13.3984 46.1562 13.3984H47.3359C47.888 13.3984 48.4062 13.2943 48.8906 13.0859C49.375 12.8776 49.7969 12.5938 50.1562 12.2344C50.5156 11.8698 50.7995 11.4453 51.0078 10.9609C51.2161 10.4714 51.3203 9.95052 51.3203 9.39844V3.79688H52.9219H52.9375ZM66.9766 15H59.7656C58.9896 15 58.2839 14.8542 57.6484 14.5625C57.013 14.2708 56.4688 13.8724 56.0156 13.3672C55.5677 12.862 55.2214 12.2682 54.9766 11.5859C54.7318 10.9036 54.6094 10.1745 54.6094 9.39844C54.6094 8.6276 54.7318 7.90365 54.9766 7.22656C55.2214 6.54427 55.5677 5.95052 56.0156 5.44531C56.4688 4.9349 57.013 4.53385 57.6484 4.24219C58.2839 3.94531 58.9896 3.79688 59.7656 3.79688H66.9766V5.39844H59.7656C59.2135 5.39844 58.7161 5.50521 58.2734 5.71875C57.8359 5.92708 57.4635 6.21354 57.1562 6.57812C56.8542 6.9375 56.6198 7.35938 56.4531 7.84375C56.2917 8.32812 56.2109 8.84635 56.2109 9.39844C56.2109 9.95052 56.2917 10.4714 56.4531 10.9609C56.6198 11.4453 56.8542 11.8698 57.1562 12.2344C57.4635 12.5938 57.8359 12.8776 58.2734 13.0859C58.7161 13.2943 59.2135 13.3984 59.7656 13.3984H66.9766V15ZM86.6484 15H79.4375C78.6615 15 77.9557 14.8542 77.3203 14.5625C76.6849 14.2708 76.1406 13.8724 75.6875 13.3672C75.2396 12.862 74.8932 12.2682 74.6484 11.5859C74.4036 10.9036 74.2812 10.1745 74.2812 9.39844C74.2812 8.6276 74.4036 7.90365 74.6484 7.22656C74.8932 6.54427 75.2396 5.95052 75.6875 5.44531C76.1406 4.9349 76.6849 4.53385 77.3203 4.24219C77.9557 3.94531 78.6615 3.79688 79.4375 3.79688H86.6484V5.39844H79.4375C78.8854 5.39844 78.388 5.50521 77.9453 5.71875C77.5078 5.92708 77.1354 6.21354 76.8281 6.57812C76.526 6.9375 76.2917 7.35938 76.125 7.84375C75.9635 8.32812 75.8828 8.84635 75.8828 9.39844C75.8828 9.95052 75.9635 10.4714 76.125 10.9609C76.2917 11.4453 76.526 11.8698 76.8281 12.2344C77.1354 12.5938 77.5078 12.8776 77.9453 13.0859C78.388 13.2943 78.8854 13.3984 79.4375 13.3984H86.6484V15ZM98.6953 10.5859C98.6953 11.1953 98.599 11.7682 98.4062 12.3047C98.2135 12.8359 97.9375 13.3021 97.5781 13.7031C97.224 14.1042 96.7969 14.4219 96.2969 14.6562C95.8021 14.8854 95.25 15 94.6406 15H91.8594C91.25 15 90.6953 14.8854 90.1953 14.6562C89.6953 14.4219 89.2656 14.1042 88.9062 13.7031C88.5521 13.3021 88.2786 12.8359 88.0859 12.3047C87.8932 11.7682 87.7969 11.1953 87.7969 10.5859C87.7969 9.98177 87.8932 9.41406 88.0859 8.88281C88.2786 8.35156 88.5521 7.88802 88.9062 7.49219C89.2656 7.09115 89.6953 6.77604 90.1953 6.54688C90.6953 6.31771 91.25 6.20312 91.8594 6.20312H94.6406C95.25 6.20312 95.8021 6.31771 96.2969 6.54688C96.7969 6.77604 97.224 7.09115 97.5781 7.49219C97.9375 7.88802 98.2135 8.35156 98.4062 8.88281C98.599 9.41406 98.6953 9.98177 98.6953 10.5859ZM97.0938 10.5859C97.0938 10.2005 97.0365 9.83854 96.9219 9.5C96.8125 9.15625 96.651 8.85938 96.4375 8.60938C96.2292 8.35417 95.974 8.15365 95.6719 8.00781C95.3698 7.85677 95.026 7.78125 94.6406 7.78125H91.8594C91.474 7.78125 91.1276 7.85677 90.8203 8.00781C90.5182 8.15365 90.2604 8.35417 90.0469 8.60938C89.8385 8.85938 89.6771 9.15625 89.5625 9.5C89.4531 9.83854 89.3984 10.2005 89.3984 10.5859C89.3984 10.9714 89.4531 11.3359 89.5625 11.6797C89.6771 12.0182 89.8385 12.3151 90.0469 12.5703C90.2604 12.8255 90.5182 13.0286 90.8203 13.1797C91.1276 13.3255 91.474 13.3984 91.8594 13.3984H94.6406C95.026 13.3984 95.3698 13.3255 95.6719 13.1797C95.974 13.0286 96.2292 12.8255 96.4375 12.5703C96.651 12.3151 96.8125 12.0182 96.9219 11.6797C97.0365 11.3359 97.0938 10.9714 97.0938 10.5859ZM108.547 15C108.547 14.4167 108.448 13.8516 108.25 13.3047C108.057 12.7526 107.794 12.2344 107.461 11.75C107.133 11.2604 106.75 10.8047 106.312 10.3828C105.88 9.96094 105.424 9.58594 104.945 9.25781C104.466 8.92448 103.977 8.64583 103.477 8.42188C102.982 8.19271 102.51 8.02344 102.062 7.91406V15H100.461V6.20312H101.328V6.21875C101.901 6.25 102.51 6.3776 103.156 6.60156C103.807 6.82031 104.453 7.11979 105.094 7.5C105.74 7.875 106.359 8.32292 106.953 8.84375C107.552 9.35938 108.083 9.92969 108.547 10.5547V6.20312H110.141V15H108.547ZM120.531 15C120.531 14.4167 120.432 13.8516 120.234 13.3047C120.042 12.7526 119.779 12.2344 119.445 11.75C119.117 11.2604 118.734 10.8047 118.297 10.3828C117.865 9.96094 117.409 9.58594 116.93 9.25781C116.451 8.92448 115.961 8.64583 115.461 8.42188C114.966 8.19271 114.495 8.02344 114.047 7.91406V15H112.445V6.20312H113.312V6.21875C113.885 6.25 114.495 6.3776 115.141 6.60156C115.792 6.82031 116.438 7.11979 117.078 7.5C117.724 7.875 118.344 8.32292 118.938 8.84375C119.536 9.35938 120.068 9.92969 120.531 10.5547V6.20312H122.125V15H120.531ZM133.617 15H124.43V6.17188H133.617V7.78125H126.047V13.3828H133.617V15ZM132.594 11.3516H126.805V9.73438H132.594V11.3516ZM144.586 15H138.906C138.286 15 137.724 14.8854 137.219 14.6562C136.714 14.4271 136.281 14.1146 135.922 13.7188C135.562 13.3177 135.284 12.849 135.086 12.3125C134.893 11.7708 134.797 11.1901 134.797 10.5703C134.797 9.95573 134.893 9.38281 135.086 8.85156C135.284 8.3151 135.562 7.84896 135.922 7.45312C136.281 7.05729 136.714 6.74479 137.219 6.51562C137.724 6.28646 138.286 6.17188 138.906 6.17188H144.586V7.78125H138.906C138.521 7.78125 138.172 7.85417 137.859 8C137.552 8.14583 137.292 8.34375 137.078 8.59375C136.865 8.84375 136.701 9.13802 136.586 9.47656C136.471 9.8151 136.414 10.1797 136.414 10.5703C136.414 10.9661 136.471 11.3359 136.586 11.6797C136.701 12.0182 136.865 12.3151 137.078 12.5703C137.292 12.8203 137.552 13.0182 137.859 13.1641C138.172 13.3099 138.521 13.3828 138.906 13.3828H144.586V15ZM151.234 15H149.633V7.78125H145.398V6.20312H155.461V7.78125H151.234V15Z" fill="white"/>
<rect y="2" width="27" height="25" fill="#C4C4C4"/>
<path d="M19.7041 21H11.5918C10.7188 21 9.9248 20.8359 9.20996 20.5078C8.49512 20.1797 7.88281 19.7314 7.37305 19.1631C6.86914 18.5947 6.47949 17.9268 6.2041 17.1592C5.92871 16.3916 5.79102 15.5713 5.79102 14.6982C5.79102 13.8311 5.92871 13.0166 6.2041 12.2549C6.47949 11.4873 6.86914 10.8193 7.37305 10.251C7.88281 9.67676 8.49512 9.22559 9.20996 8.89746C9.9248 8.56348 10.7188 8.39648 11.5918 8.39648H19.7041V10.1982H11.5918C10.9707 10.1982 10.4111 10.3184 9.91309 10.5586C9.4209 10.793 9.00195 11.1152 8.65625 11.5254C8.31641 11.9297 8.05273 12.4043 7.86523 12.9492C7.68359 13.4941 7.59277 14.0771 7.59277 14.6982C7.59277 15.3193 7.68359 15.9053 7.86523 16.4561C8.05273 17.001 8.31641 17.4785 8.65625 17.8887C9.00195 18.293 9.4209 18.6123 9.91309 18.8467C10.4111 19.0811 10.9707 19.1982 11.5918 19.1982H19.7041V21Z" fill="#16292F" fill-opacity="0.7"/>
</svg>
